<svg width="157" height="89" viewBox="0 0 157 89" fill="none" xmlns="http://www.w3.org/2000/svg">
<g clip-path="url(#clip0_5574_699)">
<path d="M157 39.8949V49.018H127.106V3.11341H137.631V39.8949H157ZM18.7845 49.018C29.568 49.018 38.6312 41.7197 41.2136 31.8437L67.4291 52.1313L93.6299 31.8531V49.018H123.524V39.8949H104.155V3.11341H93.6299V20.2781L68.501 39.7261L62.8828 35.377L74.9088 26.0657L88.0066 15.929L80.5321 10.1366L55.3983 29.5893L49.7801 25.2403L74.9088 5.79236L67.4291 0L41.2136 20.2878C38.6312 10.4118 29.568 3.11341 18.7845 3.11341H0V49.018H18.7845ZM10.5251 39.8949V12.2364H18.7845C25.7671 12.2364 31.4292 18.4294 31.4292 26.0657C31.4292 33.7019 25.7671 39.8949 18.7845 39.8949H10.5251Z" fill="white"/>
<path d="M157 78.6325C157 75.8859 155.46 74.6695 152.381 74.0565C149.301 73.4483 147.454 73.1395 147.454 71.006C147.454 69.4806 148.687 68.5682 150.841 68.5682C153.613 68.5682 154.534 69.7896 154.534 71.3148L154.841 71.619H156.074L156.381 71.3148C156.381 68.2642 153.915 67.043 150.841 67.043C147.454 67.043 145.607 68.8724 145.607 71.0108C145.607 73.4483 147.454 74.6695 150.534 75.2777C153.613 75.8907 155.153 76.1949 155.153 78.6325C155.153 80.1579 154.232 81.3791 151.153 81.3791C148.38 81.3791 147.152 79.8537 147.152 78.0243L146.845 77.7203H145.612L145.305 78.0243C145.305 80.7709 147.459 82.9045 151.153 82.9045C155.153 82.9045 157 81.0751 157 78.6325ZM143.761 75.5868L144.068 75.2826V74.3704C144.068 70.0984 141.607 67.0479 137.295 67.0479C132.987 67.0479 130.521 70.0984 130.521 74.3704V74.9786C130.521 79.2455 132.675 82.9093 137.602 82.9093C141.909 82.9093 143.449 80.1627 143.761 78.3334L143.454 78.0291H142.221L141.914 78.3334C141.3 80.1627 140.067 81.3839 137.606 81.3839C133.601 81.3839 132.373 77.7249 132.373 75.8956L132.68 75.5916H143.761V75.5868ZM141.914 74.0614H132.68L132.373 73.7571C132.373 71.6238 133.606 68.573 137.299 68.573C140.993 68.573 142.226 71.6238 142.226 73.7571L141.914 74.0614ZM128.368 82.2963V67.6561L128.061 67.3518H126.828L126.521 67.6561V82.2963L126.828 82.6002H128.061L128.368 82.2963ZM128.368 64.6052V62.7759L128.061 62.4717H126.828L126.521 62.7759V64.6052L126.828 64.9095H128.061L128.368 64.6052ZM116.668 81.3791C113.589 81.3791 111.742 79.2455 111.742 74.9737C111.742 70.7017 113.589 68.5682 116.668 68.5682C119.743 68.5682 121.595 70.7017 121.595 74.9737C121.595 79.2455 119.748 81.3791 116.668 81.3791ZM121.595 80.4618C121.595 84.425 120.669 87.4756 116.975 87.4756C114.203 87.4756 113.282 86.2544 112.975 84.729L112.668 84.425H111.435L111.128 84.729C111.435 87.1665 113.282 88.9961 116.975 88.9961C120.981 88.9961 123.441 86.5583 123.441 80.4572V67.6464L123.134 67.3421H122.209L121.902 67.6464L121.595 69.4806H121.288C120.674 68.2594 119.134 67.0382 116.361 67.0382C112.054 67.0382 109.895 70.3929 109.895 74.9689C109.895 79.5448 112.049 82.8996 116.361 82.8996C119.134 82.8996 120.674 81.6833 121.288 80.4618H121.595ZM101.582 68.5682C104.662 68.5682 106.815 71.006 106.815 74.9737C106.815 78.9367 104.662 81.3791 101.582 81.3791C98.5026 81.3791 96.349 78.9415 96.349 74.9737C96.349 71.0108 98.5026 68.5682 101.582 68.5682ZM101.582 82.9045C105.583 82.9045 108.662 80.1579 108.662 74.9737C108.662 69.7896 105.583 67.043 101.582 67.043C97.5769 67.043 94.5021 69.7896 94.5021 74.9737C94.5021 80.1579 97.5817 82.9045 101.582 82.9045ZM92.3485 82.2963V61.5547L92.0412 61.2505H90.8085L90.5016 61.5547V82.2963L90.8085 82.6002H92.0412L92.3485 82.2963ZM81.2629 68.5682C84.3423 68.5682 86.4962 71.006 86.4962 74.9737C86.4962 78.9367 84.3423 81.3791 81.2629 81.3791C78.1833 81.3791 76.0294 78.9415 76.0294 74.9737C76.0294 71.0108 78.1833 68.5682 81.2629 68.5682ZM81.2629 82.9045C85.2635 82.9045 88.3428 80.1579 88.3428 74.9737C88.3428 69.7896 85.2635 67.043 81.2629 67.043C77.2624 67.043 74.1828 69.7896 74.1828 74.9737C74.1828 80.1579 77.2624 82.9045 81.2629 82.9045ZM72.3359 82.2963V73.1441C72.3359 69.1812 70.1823 67.043 66.7956 67.043C64.6418 67.043 62.7903 67.96 61.8694 69.4854H61.5624L61.2554 67.6512L60.9485 67.347H60.0225L59.7155 67.6512V82.2914L60.0225 82.5954H61.2554L61.5624 82.2914V74.0565C61.5624 70.7018 63.1021 68.5682 66.4887 68.5682C68.9495 68.5682 70.4892 70.0936 70.4892 73.1441V82.2963L70.7962 82.6002H72.0289L72.3359 82.2963ZM56.631 82.2963V73.1441C56.631 69.1812 54.4774 67.043 51.0908 67.043C48.9369 67.043 47.0903 67.96 46.1645 69.4854H45.8575V61.5547L45.5506 61.2505H44.3176L44.0106 61.5547V82.2963L44.3176 82.6002H45.5506L45.8575 82.2963V74.0614C45.8575 70.7066 47.3972 68.573 50.7838 68.573C53.2447 68.573 54.7843 70.0984 54.7843 73.149V82.3011L55.0913 82.6051H56.324L56.631 82.2963ZM30.1575 74.9737C30.1575 70.7017 32.3111 68.5682 35.3908 68.5682C38.4704 68.5682 39.6983 70.3978 40.0101 72.2272L40.3171 72.5311H41.55L41.857 72.2272C41.5501 69.1766 39.0843 67.043 35.3908 67.043C31.3903 67.043 28.3106 69.4854 28.3106 74.9737C28.3106 80.4618 31.3903 82.9045 35.3908 82.9045C39.0843 82.9045 41.5501 80.7709 41.857 77.7203L41.55 77.4161H40.3171L40.0101 77.7203C39.7031 79.5497 38.4704 81.3791 35.3908 81.3791C32.3111 81.3791 30.1575 79.2455 30.1575 74.9737ZM26.7709 75.5868L27.0779 75.2826V74.3704C27.0779 70.0984 24.6123 67.0479 20.3048 67.0479C15.9972 67.0479 13.5316 70.0984 13.5316 74.3704V74.9786C13.5316 79.2455 15.6854 82.9093 20.6117 82.9093C24.9192 82.9093 26.459 80.1627 26.7709 78.3334L26.4639 78.0291H25.236L24.929 78.3334C24.315 80.1627 23.0822 81.3839 20.6215 81.3839C16.6209 81.3839 15.3881 77.7249 15.3881 75.8956L15.6951 75.5916H26.7709V75.5868ZM24.9241 74.0614H15.6854L15.3784 73.7571C15.3784 71.6238 16.6112 68.573 20.3048 68.573C23.9983 68.573 25.2311 71.6238 25.2311 73.7571L24.9241 74.0614ZM16.6258 62.4717V61.5547L16.3188 61.2505H0.306984L0 61.5547V62.4717L0.306984 62.7759H7.0801L7.38709 63.0801V82.2963L7.69408 82.6002H8.92688L9.23387 82.2963V63.0801L9.54084 62.7759H16.314L16.6258 62.4717Z" fill="white"/>
</g>
<defs>
<clipPath id="clip0_5574_699">
<rect width="157" height="89" fill="white"/>
</clipPath>
</defs>
</svg>
