<svg width="106" height="36" viewBox="0 0 106 36" fill="none" xmlns="http://www.w3.org/2000/svg">
<path fill-rule="evenodd" clip-rule="evenodd" d="M7.0625 27.0118V8.28516H12.602C17.2866 8.28516 21.0829 12.4794 21.0829 17.6508C21.0829 22.8176 17.2866 27.0118 12.602 27.0118H7.0625ZM12.5965 33.1911C19.8297 33.1911 25.9042 28.25 27.6381 21.5609L45.2238 35.2979L62.7939 21.571V33.1911H82.8448V27.0123H69.8556V2.10677H62.7939V13.7269L45.9349 26.904L42.1688 23.9522L50.2369 17.6512L59.0277 10.7851L54.0085 6.86614L37.1502 20.0333L33.3833 17.0869L50.2369 3.91898L45.2238 0L27.6381 13.7369C25.9042 7.04782 19.8297 2.10677 12.5965 2.10677H0V33.1911H12.5965ZM105.296 27.0129V33.1917H85.25V2.10742H92.307V27.0129H105.296Z" fill="white"/>
</svg>
