<svg width="136" height="55" viewBox="0 0 136 55" fill="none" xmlns="http://www.w3.org/2000/svg">
<path fill-rule="evenodd" clip-rule="evenodd" d="M9.11209 34.8904V34.8904V10.7019H16.2672C22.3179 10.7019 27.2215 16.1194 27.2215 22.7992C27.2215 29.4729 22.3179 34.8904 16.2672 34.8904H9.11209ZM16.2702 42.8716V42.8716C25.6129 42.8716 33.4589 36.4895 35.6985 27.8494L58.4128 45.5929L81.1072 27.8624V42.8716H107.006V34.8907H90.2283V2.72123H81.1072V17.7305L59.3314 34.7509L54.4669 30.9382L64.888 22.7994L76.2426 13.9307L69.7595 8.86872L47.9848 25.8762L43.1192 22.0704L64.888 5.06199L58.4128 0L35.6985 17.7434C33.4589 9.10339 25.6129 2.72123 16.2702 2.72123H0V42.8716H16.2702ZM136 34.8911V34.8911V42.872H110.108V2.72163H119.223V34.8911H136Z" fill="white"/>
</svg>
