<svg width="221" height="73" viewBox="0 0 221 73" fill="none" xmlns="http://www.w3.org/2000/svg">
<path d="M28.3519 56.0824C24.4905 56.0824 20.855 55.3534 17.4473 53.8938C14.0396 52.4341 11.0194 50.4291 8.38289 47.8752C5.79305 45.2762 3.74845 42.2903 2.24907 38.9157C0.749686 35.541 0 31.9162 0 28.0412C0 24.1662 0.749686 20.5413 2.24907 17.1667C3.74845 13.792 5.79305 10.8295 8.38289 8.27555C11.0194 5.67661 14.0396 3.64824 17.4473 2.18859C20.855 0.728933 24.4905 0 28.3519 0C32.6241 0 36.3044 0.75232 39.3928 2.25697C42.5279 3.71662 45.2325 5.53983 47.5031 7.72841L42.119 13.1315C40.4833 11.5818 38.5301 10.2824 36.2577 9.23308C34.032 8.18379 31.3973 7.66002 28.3519 7.66002C25.5361 7.66002 22.8996 8.18379 20.4461 9.23308C18.0392 10.2824 15.9264 11.7402 14.1078 13.6102C12.291 15.4802 10.8597 17.6454 9.81412 20.1076C8.81514 22.5697 8.31475 25.2137 8.31475 28.0412C8.31475 30.8687 8.81514 33.5126 9.81412 35.9748C10.8597 38.4369 12.291 40.6021 14.1078 42.4721C15.9264 44.3421 18.0392 45.8 20.4461 46.8493C22.8996 47.8986 25.5361 48.4223 28.3519 48.4223C31.9874 48.4223 34.918 47.8302 37.1437 46.6441C39.3713 45.413 41.1433 44.137 42.4597 42.8141C43.5502 41.7198 44.4362 40.3754 45.1177 38.7789C45.8459 37.1825 46.3445 35.3142 46.6171 33.1707H28.3519V25.5106H54.0458C54.3185 26.8785 54.4548 28.4749 54.4548 30.2982C54.4548 32.2132 54.2503 34.2416 53.8414 36.3851C53.4325 38.4819 52.7509 40.5571 51.7968 42.6089C50.8426 44.6607 49.5262 46.5307 47.8439 48.2171C45.3903 50.7711 42.5745 52.7311 39.3928 54.099C36.2129 55.4218 32.5326 56.0824 28.3519 56.0824ZM75.2416 56.0824C71.9254 56.0824 68.9033 55.3066 66.1772 53.757C63.4511 52.1606 61.2701 50.0188 59.6344 47.3281C57.9987 44.5923 57.1809 41.4912 57.1809 38.0266C57.1809 34.5151 57.9987 31.4158 59.6344 28.7251C61.2701 25.9894 63.4511 23.8458 66.1772 22.2962C68.9033 20.7465 71.9254 19.9708 75.2416 19.9708C78.5596 19.9708 81.5799 20.7465 84.306 22.2962C87.0322 23.8458 89.2131 25.9894 90.8488 28.7251C92.4845 31.4158 93.3023 34.5151 93.3023 38.0266C93.3023 41.4912 92.4845 44.5923 90.8488 47.3281C89.2131 50.0188 87.0322 52.1606 84.306 53.757C81.5799 55.3066 78.5596 56.0824 75.2416 56.0824ZM75.2416 48.9695C77.0602 48.9695 78.7408 48.5141 80.285 47.6016C81.831 46.6441 83.0578 45.3446 83.9653 43.7032C84.9194 42.0618 85.3965 40.1701 85.3965 38.0266C85.3965 35.838 84.9194 33.923 83.9653 32.2816C83.0578 30.6401 81.831 29.364 80.285 28.4515C78.7408 27.539 77.0602 27.0837 75.2416 27.0837C73.4248 27.0837 71.7443 27.539 70.1982 28.4515C68.654 29.364 67.404 30.6401 66.4498 32.2816C65.5423 33.923 65.0867 35.838 65.0867 38.0266C65.0867 40.1701 65.5423 42.0618 66.4498 43.7032C67.404 45.3446 68.654 46.6441 70.1982 47.6016C71.7443 48.5141 73.4248 48.9695 75.2416 48.9695ZM114.634 56.0824C111.318 56.0824 108.296 55.3066 105.57 53.757C102.844 52.1606 100.663 50.0188 99.0272 47.3281C97.3916 44.5923 96.5737 41.4912 96.5737 38.0266C96.5737 34.5151 97.3916 31.4158 99.0272 28.7251C100.663 25.9894 102.844 23.8458 105.57 22.2962C108.296 20.7465 111.318 19.9708 114.634 19.9708C117.952 19.9708 120.973 20.7465 123.699 22.2962C126.425 23.8458 128.606 25.9894 130.242 28.7251C131.877 31.4158 132.695 34.5151 132.695 38.0266C132.695 41.4912 131.877 44.5923 130.242 47.3281C128.606 50.0188 126.425 52.1606 123.699 53.757C120.973 55.3066 117.952 56.0824 114.634 56.0824ZM114.634 48.9695C116.453 48.9695 118.134 48.5141 119.678 47.6016C121.224 46.6441 122.451 45.3446 123.358 43.7032C124.312 42.0618 124.789 40.1701 124.789 38.0266C124.789 35.838 124.312 33.923 123.358 32.2816C122.451 30.6401 121.224 29.364 119.678 28.4515C118.134 27.539 116.453 27.0837 114.634 27.0837C112.818 27.0837 111.137 27.539 109.591 28.4515C108.047 29.364 106.797 30.6401 105.843 32.2816C104.935 33.923 104.48 35.838 104.48 38.0266C104.48 40.1701 104.935 42.0618 105.843 43.7032C106.797 45.3446 108.047 46.6441 109.591 47.6016C111.137 48.5141 112.818 48.9695 114.634 48.9695ZM153.346 72.2915C150.438 72.2915 147.917 71.721 145.781 70.5817C143.646 69.4874 141.874 68.1196 140.465 66.4781C139.102 64.8367 138.079 63.2186 137.398 61.6222L144.281 58.7497C144.69 59.7072 145.282 60.6881 146.053 61.6906C146.871 62.6931 147.893 63.5138 149.12 64.1527C150.347 64.8367 151.757 65.1787 153.346 65.1787C156.3 65.1787 158.64 64.2661 160.366 62.4429C162.093 60.6647 162.955 58.0424 162.955 54.5777V51.9788H162.683C161.82 53.0731 160.548 54.0306 158.866 54.8513C157.23 55.672 155.345 56.0824 153.209 56.0824C150.984 56.0824 148.826 55.627 146.735 54.7145C144.69 53.802 142.85 52.5259 141.214 50.8845C139.579 49.2431 138.284 47.328 137.33 45.1395C136.422 42.9509 135.967 40.6021 135.967 38.095C135.967 35.541 136.422 33.1707 137.33 30.9821C138.284 28.7935 139.579 26.8785 141.214 25.2371C142.85 23.5506 144.69 22.2512 146.735 21.3387C148.826 20.4262 150.984 19.9708 153.209 19.9708C155.345 19.9708 157.23 20.3811 158.866 21.2019C160.548 22.0226 161.82 22.9567 162.683 24.006H162.955V21.0651H170.452V53.4834C170.452 57.9056 169.658 61.5088 168.067 64.2895C166.523 67.0703 164.455 69.1005 161.865 70.3765C159.275 71.6526 156.436 72.2915 153.346 72.2915ZM153.891 48.9695C155.71 48.9695 157.322 48.5141 158.73 47.6016C160.184 46.6441 161.343 45.3446 162.206 43.7032C163.07 42.0618 163.501 40.1918 163.501 38.095C163.501 35.9514 163.07 34.0598 162.206 32.4183C161.343 30.7769 160.184 29.4774 158.73 28.5199C157.322 27.5624 155.71 27.0837 153.891 27.0837C152.074 27.0837 150.394 27.5624 148.848 28.5199C147.348 29.4774 146.145 30.7769 145.235 32.4183C144.328 34.0598 143.872 35.9514 143.872 38.095C143.872 40.1918 144.328 42.0618 145.235 43.7032C146.145 45.3446 147.348 46.6441 148.848 47.6016C150.394 48.5141 152.074 48.9695 153.891 48.9695ZM175.905 54.9881V1.915H183.81V54.9881H175.905ZM195.397 37.753C195.397 40.2152 195.874 42.2903 196.828 43.9768C197.828 45.6632 199.1 46.9177 200.644 47.7384C202.19 48.5591 203.803 48.9695 205.483 48.9695C207.483 48.9695 209.21 48.5141 210.663 47.6016C212.117 46.6891 213.344 45.4814 214.343 43.9768L220.477 48.0804C219.842 49.0379 218.865 50.1556 217.546 51.4316C216.23 52.6627 214.571 53.757 212.571 54.7145C210.618 55.627 208.256 56.0824 205.483 56.0824C202.076 56.0824 199.032 55.285 196.351 53.6886C193.671 52.0922 191.535 49.927 189.944 47.1913C188.4 44.4555 187.627 41.4012 187.627 38.0266C187.627 34.4251 188.4 31.2791 189.944 28.5883C191.49 25.8976 193.535 23.8008 196.078 22.2962C198.668 20.7465 201.509 19.9708 204.597 19.9708C206.914 19.9708 208.959 20.3811 210.731 21.2019C212.503 21.9776 214.002 22.9801 215.229 24.2112C216.456 25.4422 217.457 26.7183 218.228 28.0412C219.046 29.3173 219.638 30.4583 220 31.4608L220.818 33.5126L194.579 44.3871L193.216 38.4369L211.549 30.7769C211.095 29.6376 210.254 28.7251 209.027 28.0412C207.847 27.3123 206.461 26.9469 204.87 26.9469C203.507 26.9469 202.099 27.3338 200.644 28.1096C199.192 28.8385 197.941 30.0246 196.896 31.666C195.897 33.2624 195.397 35.2908 195.397 37.753Z" fill="white"/>
</svg>
