<svg width="543" height="403" viewBox="0 0 543 403" fill="none" xmlns="http://www.w3.org/2000/svg">
<g filter="url(#filter0_d_4156_3753)">
<g clip-path="url(#clip0_4156_3753)">
<path d="M175.926 225.282H185.63V201.07L171.767 190.388V221.009C171.767 223.374 173.631 225.282 175.926 225.282Z" fill="#4285F4"/>
<path d="M218.903 225.282H228.608C230.909 225.282 232.767 223.367 232.767 221.009V190.388L218.903 201.07" fill="#34A853"/>
<path d="M218.903 182.555V201.07L232.767 190.388V184.691C232.767 179.407 226.896 176.395 222.785 179.564" fill="#FBBC04"/>
<path d="M185.63 201.07V182.555L202.266 195.373L218.903 182.555V201.07L202.266 213.888" fill="#EA4335"/>
<path d="M171.767 184.691V190.388L185.63 201.07V182.555L181.748 179.564C177.631 176.395 171.767 179.407 171.767 184.691Z" fill="#C5221F"/>
</g>
<foreignObject x="119.4" y="119.4" width="304.166" height="163.417"><div xmlns="http://www.w3.org/1999/xhtml" style="backdrop-filter:blur(13.9px);clip-path:url(#bgblur_1_4156_3753_clip_path);height:100%;width:100%"></div></foreignObject><g data-figma-bg-blur-radius="27.8">
<rect x="147.2" y="147.2" width="248.566" height="107.817" rx="53.9087" fill="#8CBEFE" fill-opacity="0.27" style="mix-blend-mode:screen"/>
<rect x="147.7" y="147.7" width="247.566" height="106.817" rx="53.4087" stroke="url(#paint0_linear_4156_3753)" stroke-opacity="0.2"/>
</g>
<g clip-path="url(#clip2_4156_3753)">
<path d="M175.926 225.282H185.63V201.07L171.767 190.388V221.009C171.767 223.374 173.631 225.282 175.926 225.282Z" fill="#4285F4"/>
<path d="M218.903 225.282H228.608C230.909 225.282 232.767 223.367 232.767 221.009V190.388L218.903 201.07" fill="#34A853"/>
<path d="M218.903 182.555V201.07L232.767 190.388V184.691C232.767 179.407 226.896 176.395 222.785 179.564" fill="#FBBC04"/>
<path d="M185.63 201.07V182.555L202.266 195.373L218.903 182.555V201.07L202.266 213.888" fill="#EA4335"/>
<path d="M171.767 184.691V190.388L185.63 201.07V182.555L181.748 179.564C177.631 176.395 171.767 179.407 171.767 184.691Z" fill="#C5221F"/>
</g>
<g opacity="0.6">
<path d="M265.783 220.609V181.229H272.548L285.088 213.514H285.308L297.848 181.229H304.613V220.609H299.993V195.584L300.213 188.104H299.993L287.123 220.609H283.273L270.403 188.104H270.183L270.403 195.584V220.609H265.783Z" fill="#000F19"/>
<path d="M319.807 221.489C317.717 221.489 315.884 221.085 314.307 220.279C312.731 219.472 311.484 218.372 310.567 216.979C309.687 215.549 309.247 213.935 309.247 212.139C309.247 210.085 309.779 208.362 310.842 206.969C311.906 205.539 313.336 204.475 315.132 203.779C316.929 203.045 318.909 202.679 321.072 202.679C322.319 202.679 323.474 202.789 324.537 203.009C325.601 203.192 326.517 203.43 327.287 203.724C328.094 203.98 328.699 204.237 329.102 204.494V202.789C329.102 200.662 328.351 198.975 326.847 197.729C325.344 196.482 323.511 195.859 321.347 195.859C319.807 195.859 318.359 196.207 317.002 196.904C315.682 197.564 314.637 198.499 313.867 199.709L310.347 197.069C311.081 195.969 311.997 195.015 313.097 194.209C314.197 193.402 315.444 192.779 316.837 192.339C318.267 191.899 319.771 191.679 321.347 191.679C325.161 191.679 328.149 192.687 330.312 194.704C332.476 196.72 333.557 199.434 333.557 202.844V220.609H329.102V216.594H328.882C328.406 217.4 327.727 218.189 326.847 218.959C325.967 219.692 324.922 220.297 323.712 220.774C322.539 221.25 321.237 221.489 319.807 221.489ZM320.247 217.364C321.861 217.364 323.327 216.96 324.647 216.154C326.004 215.347 327.086 214.265 327.892 212.909C328.699 211.552 329.102 210.067 329.102 208.454C328.259 207.867 327.196 207.39 325.912 207.024C324.666 206.657 323.291 206.474 321.787 206.474C319.111 206.474 317.149 207.024 315.902 208.124C314.656 209.224 314.032 210.58 314.032 212.194C314.032 213.734 314.619 214.98 315.792 215.934C316.966 216.887 318.451 217.364 320.247 217.364Z" fill="#000F19"/>
<path d="M338.301 220.609V192.559H342.976V220.609H338.301ZM340.611 187.389C339.694 187.389 338.906 187.059 338.246 186.399C337.586 185.739 337.256 184.95 337.256 184.034C337.256 183.08 337.586 182.292 338.246 181.669C338.906 181.009 339.694 180.679 340.611 180.679C341.564 180.679 342.353 181.009 342.976 181.669C343.636 182.292 343.966 183.08 343.966 184.034C343.966 184.95 343.636 185.739 342.976 186.399C342.353 187.059 341.564 187.389 340.611 187.389Z" fill="#000F19"/>
<path d="M348.145 220.609V181.229H352.82V220.609H348.145Z" fill="#000F19"/>
</g>
</g>
<defs>
<filter id="filter0_d_4156_3753" x="-0.433395" y="0.000198364" width="543.4" height="402.482" filterUnits="userSpaceOnUse" color-interpolation-filters="sRGB">
<feFlood flood-opacity="0" result="BackgroundImageFix"/>
<feColorMatrix in="SourceAlpha" type="matrix" values="0 0 0 0 0 0 0 0 0 0 0 0 0 0 0 0 0 0 127 0" result="hardAlpha"/>
<feOffset/>
<feGaussianBlur stdDeviation="73.6"/>
<feComposite in2="hardAlpha" operator="out"/>
<feColorMatrix type="matrix" values="0 0 0 0 1 0 0 0 0 1 0 0 0 0 1 0 0 0 0.11 0"/>
<feBlend mode="plus-lighter" in2="BackgroundImageFix" result="effect1_dropShadow_4156_3753"/>
<feBlend mode="normal" in="SourceGraphic" in2="effect1_dropShadow_4156_3753" result="shape"/>
</filter>
<clipPath id="bgblur_1_4156_3753_clip_path" transform="translate(-119.4 -119.4)"><rect x="147.2" y="147.2" width="248.566" height="107.817" rx="53.9087"/>
</clipPath><linearGradient id="paint0_linear_4156_3753" x1="355.663" y1="231.846" x2="304.691" y2="127.53" gradientUnits="userSpaceOnUse">
<stop stop-color="#409EFF"/>
<stop offset="1" stop-color="#409EFF" stop-opacity="0"/>
</linearGradient>
<clipPath id="clip0_4156_3753">
<rect width="61" height="47" fill="white" transform="translate(171.767 178.282)"/>
</clipPath>
<clipPath id="clip2_4156_3753">
<rect width="61" height="47" fill="white" transform="translate(171.767 178.282)"/>
</clipPath>
</defs>
</svg>
