<svg width="677" height="403" viewBox="0 0 677 403" fill="none" xmlns="http://www.w3.org/2000/svg">
<g filter="url(#filter0_d_4156_3788)">
<g clip-path="url(#clip0_4156_3788)">
<mask id="mask0_4156_3788" style="mask-type:luminance" maskUnits="userSpaceOnUse" x="178" y="166" width="71" height="71">
<path d="M248.2 166.2H178.2V236.2H248.2V166.2Z" fill="white"/>
</mask>
<g mask="url(#mask0_4156_3788)">
<path d="M237.5 187.331C235.604 179.394 228.462 173.492 219.945 173.492H201.352C191.384 173.492 183.305 181.571 183.305 191.539C183.305 196.701 185.474 201.36 188.952 204.649L237.5 187.331Z" fill="#86A9FF"/>
<path d="M188.952 204.649C189.732 207.741 191.337 210.599 193.63 212.892L212.205 231.468C212.435 231.697 212.745 231.825 213.073 231.825C213.747 231.825 214.298 231.278 214.298 230.6V218.335H225.053C235.123 218.335 243.268 210.089 243.096 199.979C243.013 194.995 240.872 190.532 237.5 187.328L188.952 204.649Z" fill="#578CFF"/>
<path d="M219.946 209.585C229.913 209.585 237.993 201.506 237.993 191.539C237.993 190.091 237.821 188.68 237.5 187.331C234.179 184.174 229.665 182.242 224.754 182.242H206.456C196.488 182.242 188.409 190.321 188.409 200.289C188.409 201.772 188.595 203.234 188.952 204.649C192.186 207.708 196.55 209.585 201.352 209.585H219.946Z" fill="#0057CC"/>
</g>
</g>
<foreignObject x="119.4" y="119.4" width="437.6" height="163.6"><div xmlns="http://www.w3.org/1999/xhtml" style="backdrop-filter:blur(13.9px);clip-path:url(#bgblur_1_4156_3788_clip_path);height:100%;width:100%"></div></foreignObject><g data-figma-bg-blur-radius="27.8">
<rect x="147.2" y="147.2" width="382" height="108" rx="54" fill="#8CBEFE" fill-opacity="0.27" style="mix-blend-mode:screen"/>
<rect x="147.7" y="147.7" width="381" height="107" rx="53.5" stroke="url(#paint0_linear_4156_3788)" stroke-opacity="0.2"/>
</g>
<g clip-path="url(#clip2_4156_3788)">
<mask id="mask1_4156_3788" style="mask-type:luminance" maskUnits="userSpaceOnUse" x="175" y="166" width="71" height="71">
<path d="M245.2 166.2H175.2V236.2H245.2V166.2Z" fill="white"/>
</mask>
<g mask="url(#mask1_4156_3788)">
<path d="M234.5 187.331C232.604 179.394 225.462 173.492 216.945 173.492H198.352C188.384 173.492 180.305 181.571 180.305 191.539C180.305 196.701 182.474 201.36 185.952 204.649L234.5 187.331Z" fill="#86A9FF"/>
<path d="M185.952 204.649C186.732 207.741 188.337 210.599 190.63 212.892L209.205 231.468C209.435 231.697 209.745 231.825 210.073 231.825C210.747 231.825 211.298 231.278 211.298 230.6V218.335H222.053C232.123 218.335 240.268 210.089 240.096 199.979C240.013 194.995 237.872 190.532 234.5 187.328L185.952 204.649Z" fill="#578CFF"/>
<path d="M216.946 209.585C226.913 209.585 234.993 201.506 234.993 191.539C234.993 190.091 234.821 188.68 234.5 187.331C231.179 184.174 226.665 182.242 221.754 182.242H203.456C193.488 182.242 185.409 190.321 185.409 200.289C185.409 201.772 185.595 203.234 185.952 204.649C189.186 207.708 193.55 209.585 198.352 209.585H216.946Z" fill="#0057CC"/>
</g>
</g>
<g opacity="0.6">
<path d="M268.926 220.661V181.281H275.691L288.231 213.566H288.451L300.991 181.281H307.756V220.661H303.136V195.636L303.356 188.156H303.136L290.266 220.661H286.416L273.546 188.156H273.326L273.546 195.636V220.661H268.926Z" fill="#000F19"/>
<path d="M326.36 221.541C323.647 221.541 321.227 220.9 319.1 219.616C317.01 218.333 315.36 216.573 314.15 214.336C312.977 212.1 312.39 209.551 312.39 206.691C312.39 204.015 312.94 201.54 314.04 199.266C315.177 196.993 316.753 195.178 318.77 193.821C320.823 192.428 323.225 191.731 325.975 191.731C328.762 191.731 331.145 192.355 333.125 193.601C335.142 194.811 336.682 196.498 337.745 198.661C338.845 200.825 339.395 203.3 339.395 206.086C339.395 206.343 339.377 206.6 339.34 206.856C339.34 207.113 339.322 207.333 339.285 207.516H315.14V203.666H334.445C334.408 202.896 334.225 202.071 333.895 201.191C333.602 200.275 333.107 199.431 332.41 198.661C331.75 197.855 330.888 197.213 329.825 196.736C328.798 196.223 327.515 195.966 325.975 195.966C324.142 195.966 322.547 196.443 321.19 197.396C319.87 198.313 318.843 199.578 318.11 201.191C317.413 202.805 317.065 204.638 317.065 206.691C317.065 209.075 317.523 211.055 318.44 212.631C319.357 214.208 320.53 215.381 321.96 216.151C323.427 216.921 324.948 217.306 326.525 217.306C328.578 217.306 330.265 216.83 331.585 215.876C332.942 214.886 334.023 213.676 334.83 212.246L338.79 214.171C337.69 216.298 336.113 218.058 334.06 219.451C332.007 220.845 329.44 221.541 326.36 221.541Z" fill="#000F19"/>
<path d="M352.845 221.541C350.755 221.541 348.903 221.211 347.29 220.551C345.713 219.855 344.393 218.938 343.33 217.801C342.303 216.628 341.533 215.363 341.02 214.006L345.2 212.136C345.933 213.823 346.997 215.125 348.39 216.041C349.783 216.958 351.378 217.416 353.175 217.416C354.898 217.416 356.328 217.068 357.465 216.371C358.638 215.675 359.225 214.648 359.225 213.291C359.225 212.448 358.987 211.751 358.51 211.201C358.033 210.615 357.337 210.12 356.42 209.716C355.503 209.313 354.385 208.946 353.065 208.616L349.655 207.736C348.335 207.37 347.088 206.856 345.915 206.196C344.742 205.536 343.788 204.693 343.055 203.666C342.358 202.603 342.01 201.32 342.01 199.816C342.01 198.13 342.505 196.681 343.495 195.471C344.485 194.261 345.787 193.345 347.4 192.721C349.013 192.061 350.737 191.731 352.57 191.731C354.183 191.731 355.687 191.97 357.08 192.446C358.51 192.886 359.757 193.565 360.82 194.481C361.883 195.361 362.69 196.461 363.24 197.781L359.17 199.651C358.473 198.258 357.538 197.286 356.365 196.736C355.192 196.186 353.89 195.911 352.46 195.911C350.92 195.911 349.582 196.26 348.445 196.956C347.308 197.616 346.74 198.533 346.74 199.706C346.74 200.88 347.198 201.76 348.115 202.346C349.068 202.933 350.223 203.41 351.58 203.776L355.65 204.821C358.4 205.518 360.472 206.563 361.865 207.956C363.258 209.313 363.955 210.981 363.955 212.961C363.955 214.721 363.46 216.243 362.47 217.526C361.48 218.81 360.142 219.8 358.455 220.496C356.768 221.193 354.898 221.541 352.845 221.541Z" fill="#000F19"/>
<path d="M377.084 221.541C374.994 221.541 373.142 221.211 371.529 220.551C369.952 219.855 368.632 218.938 367.569 217.801C366.542 216.628 365.772 215.363 365.259 214.006L369.439 212.136C370.172 213.823 371.235 215.125 372.629 216.041C374.022 216.958 375.617 217.416 377.414 217.416C379.137 217.416 380.567 217.068 381.704 216.371C382.877 215.675 383.464 214.648 383.464 213.291C383.464 212.448 383.225 211.751 382.749 211.201C382.272 210.615 381.575 210.12 380.659 209.716C379.742 209.313 378.624 208.946 377.304 208.616L373.894 207.736C372.574 207.37 371.327 206.856 370.154 206.196C368.98 205.536 368.027 204.693 367.294 203.666C366.597 202.603 366.249 201.32 366.249 199.816C366.249 198.13 366.744 196.681 367.734 195.471C368.724 194.261 370.025 193.345 371.639 192.721C373.252 192.061 374.975 191.731 376.809 191.731C378.422 191.731 379.925 191.97 381.319 192.446C382.749 192.886 383.995 193.565 385.059 194.481C386.122 195.361 386.929 196.461 387.479 197.781L383.409 199.651C382.712 198.258 381.777 197.286 380.604 196.736C379.43 196.186 378.129 195.911 376.699 195.911C375.159 195.911 373.82 196.26 372.684 196.956C371.547 197.616 370.979 198.533 370.979 199.706C370.979 200.88 371.437 201.76 372.354 202.346C373.307 202.933 374.462 203.41 375.819 203.776L379.889 204.821C382.639 205.518 384.71 206.563 386.104 207.956C387.497 209.313 388.194 210.981 388.194 212.961C388.194 214.721 387.699 216.243 386.709 217.526C385.719 218.81 384.38 219.8 382.694 220.496C381.007 221.193 379.137 221.541 377.084 221.541Z" fill="#000F19"/>
<path d="M400.607 221.541C398.517 221.541 396.684 221.138 395.107 220.331C393.531 219.525 392.284 218.425 391.367 217.031C390.487 215.601 390.047 213.988 390.047 212.191C390.047 210.138 390.579 208.415 391.642 207.021C392.706 205.591 394.136 204.528 395.932 203.831C397.729 203.098 399.709 202.731 401.872 202.731C403.119 202.731 404.274 202.841 405.337 203.061C406.401 203.245 407.317 203.483 408.087 203.776C408.894 204.033 409.499 204.29 409.902 204.546V202.841C409.902 200.715 409.151 199.028 407.647 197.781C406.144 196.535 404.311 195.911 402.147 195.911C400.607 195.911 399.159 196.26 397.802 196.956C396.482 197.616 395.437 198.551 394.667 199.761L391.147 197.121C391.881 196.021 392.797 195.068 393.897 194.261C394.997 193.455 396.244 192.831 397.637 192.391C399.067 191.951 400.571 191.731 402.147 191.731C405.961 191.731 408.949 192.74 411.112 194.756C413.276 196.773 414.357 199.486 414.357 202.896V220.661H409.902V216.646H409.682C409.206 217.453 408.527 218.241 407.647 219.011C406.767 219.745 405.722 220.35 404.512 220.826C403.339 221.303 402.037 221.541 400.607 221.541ZM401.047 217.416C402.661 217.416 404.127 217.013 405.447 216.206C406.804 215.4 407.886 214.318 408.692 212.961C409.499 211.605 409.902 210.12 409.902 208.506C409.059 207.92 407.996 207.443 406.712 207.076C405.466 206.71 404.091 206.526 402.587 206.526C399.911 206.526 397.949 207.076 396.702 208.176C395.456 209.276 394.832 210.633 394.832 212.246C394.832 213.786 395.419 215.033 396.592 215.986C397.766 216.94 399.251 217.416 401.047 217.416Z" fill="#000F19"/>
<path d="M431.421 233.421C429.038 233.421 426.984 233.018 425.261 232.211C423.574 231.441 422.199 230.451 421.136 229.241C420.109 228.031 419.376 226.803 418.936 225.556L423.226 223.741C423.813 225.281 424.803 226.565 426.196 227.591C427.626 228.655 429.368 229.186 431.421 229.186C434.354 229.186 436.609 228.325 438.186 226.601C439.763 224.915 440.551 222.55 440.551 219.506V216.371H440.331C439.451 217.728 438.186 218.883 436.536 219.836C434.886 220.753 432.961 221.211 430.761 221.211C428.341 221.211 426.123 220.588 424.106 219.341C422.126 218.095 420.549 216.371 419.376 214.171C418.203 211.935 417.616 209.368 417.616 206.471C417.616 203.575 418.203 201.026 419.376 198.826C420.549 196.59 422.126 194.848 424.106 193.601C426.123 192.355 428.341 191.731 430.761 191.731C432.961 191.731 434.886 192.208 436.536 193.161C438.186 194.078 439.451 195.233 440.331 196.626H440.551V192.611H445.006V219.561C445.006 222.678 444.401 225.263 443.191 227.316C442.018 229.37 440.404 230.891 438.351 231.881C436.334 232.908 434.024 233.421 431.421 233.421ZM431.421 216.976C433.071 216.976 434.593 216.573 435.986 215.766C437.379 214.923 438.479 213.713 439.286 212.136C440.129 210.56 440.551 208.671 440.551 206.471C440.551 204.198 440.129 202.291 439.286 200.751C438.479 199.175 437.379 197.983 435.986 197.176C434.593 196.37 433.071 195.966 431.421 195.966C429.771 195.966 428.249 196.388 426.856 197.231C425.463 198.038 424.344 199.23 423.501 200.806C422.658 202.346 422.236 204.235 422.236 206.471C422.236 208.708 422.658 210.615 423.501 212.191C424.344 213.731 425.463 214.923 426.856 215.766C428.249 216.573 429.771 216.976 431.421 216.976Z" fill="#000F19"/>
<path d="M462.646 221.541C459.933 221.541 457.513 220.9 455.386 219.616C453.296 218.333 451.646 216.573 450.436 214.336C449.263 212.1 448.676 209.551 448.676 206.691C448.676 204.015 449.226 201.54 450.326 199.266C451.463 196.993 453.039 195.178 455.056 193.821C457.109 192.428 459.511 191.731 462.261 191.731C465.048 191.731 467.431 192.355 469.411 193.601C471.428 194.811 472.968 196.498 474.031 198.661C475.131 200.825 475.681 203.3 475.681 206.086C475.681 206.343 475.663 206.6 475.626 206.856C475.626 207.113 475.608 207.333 475.571 207.516H451.426V203.666H470.731C470.694 202.896 470.511 202.071 470.181 201.191C469.888 200.275 469.393 199.431 468.696 198.661C468.036 197.855 467.174 197.213 466.111 196.736C465.084 196.223 463.801 195.966 462.261 195.966C460.428 195.966 458.833 196.443 457.476 197.396C456.156 198.313 455.129 199.578 454.396 201.191C453.699 202.805 453.351 204.638 453.351 206.691C453.351 209.075 453.809 211.055 454.726 212.631C455.643 214.208 456.816 215.381 458.246 216.151C459.713 216.921 461.234 217.306 462.811 217.306C464.864 217.306 466.551 216.83 467.871 215.876C469.228 214.886 470.309 213.676 471.116 212.246L475.076 214.171C473.976 216.298 472.399 218.058 470.346 219.451C468.293 220.845 465.726 221.541 462.646 221.541Z" fill="#000F19"/>
<path d="M489.131 221.541C487.041 221.541 485.19 221.211 483.576 220.551C482 219.855 480.68 218.938 479.616 217.801C478.59 216.628 477.82 215.363 477.306 214.006L481.486 212.136C482.22 213.823 483.283 215.125 484.676 216.041C486.07 216.958 487.665 217.416 489.461 217.416C491.185 217.416 492.615 217.068 493.751 216.371C494.925 215.675 495.511 214.648 495.511 213.291C495.511 212.448 495.273 211.751 494.796 211.201C494.32 210.615 493.623 210.12 492.706 209.716C491.79 209.313 490.671 208.946 489.351 208.616L485.941 207.736C484.621 207.37 483.375 206.856 482.201 206.196C481.028 205.536 480.075 204.693 479.341 203.666C478.645 202.603 478.296 201.32 478.296 199.816C478.296 198.13 478.791 196.681 479.781 195.471C480.771 194.261 482.073 193.345 483.686 192.721C485.3 192.061 487.023 191.731 488.856 191.731C490.47 191.731 491.973 191.97 493.366 192.446C494.796 192.886 496.043 193.565 497.106 194.481C498.17 195.361 498.976 196.461 499.526 197.781L495.456 199.651C494.76 198.258 493.825 197.286 492.651 196.736C491.478 196.186 490.176 195.911 488.746 195.911C487.206 195.911 485.868 196.26 484.731 196.956C483.595 197.616 483.026 198.533 483.026 199.706C483.026 200.88 483.485 201.76 484.401 202.346C485.355 202.933 486.51 203.41 487.866 203.776L491.936 204.821C494.686 205.518 496.758 206.563 498.151 207.956C499.545 209.313 500.241 210.981 500.241 212.961C500.241 214.721 499.746 216.243 498.756 217.526C497.766 218.81 496.428 219.8 494.741 220.496C493.055 221.193 491.185 221.541 489.131 221.541Z" fill="#000F19"/>
</g>
</g>
<defs>
<filter id="filter0_d_4156_3788" x="-0.0388641" y="-0.0388641" width="676.439" height="402.439" filterUnits="userSpaceOnUse" color-interpolation-filters="sRGB">
<feFlood flood-opacity="0" result="BackgroundImageFix"/>
<feColorMatrix in="SourceAlpha" type="matrix" values="0 0 0 0 0 0 0 0 0 0 0 0 0 0 0 0 0 0 127 0" result="hardAlpha"/>
<feOffset/>
<feGaussianBlur stdDeviation="73.6"/>
<feComposite in2="hardAlpha" operator="out"/>
<feColorMatrix type="matrix" values="0 0 0 0 1 0 0 0 0 1 0 0 0 0 1 0 0 0 0.11 0"/>
<feBlend mode="plus-lighter" in2="BackgroundImageFix" result="effect1_dropShadow_4156_3788"/>
<feBlend mode="normal" in="SourceGraphic" in2="effect1_dropShadow_4156_3788" result="shape"/>
</filter>
<clipPath id="bgblur_1_4156_3788_clip_path" transform="translate(-119.4 -119.4)"><rect x="147.2" y="147.2" width="382" height="108" rx="54"/>
</clipPath><linearGradient id="paint0_linear_4156_3788" x1="467.568" y1="231.99" x2="430.139" y2="114.469" gradientUnits="userSpaceOnUse">
<stop stop-color="#409EFF"/>
<stop offset="1" stop-color="#409EFF" stop-opacity="0"/>
</linearGradient>
<clipPath id="clip0_4156_3788">
<rect width="70" height="70" fill="white" transform="translate(178.2 166.2)"/>
</clipPath>
<clipPath id="clip2_4156_3788">
<rect width="70" height="70" fill="white" transform="translate(175.2 166.2)"/>
</clipPath>
</defs>
</svg>
