<svg width="16" height="15" viewBox="0 0 16 15" fill="none" xmlns="http://www.w3.org/2000/svg">
<path d="M13.0203 0.292798C13.4108 -0.0976629 14.0439 -0.0975355 14.4344 0.292798C14.8249 0.683322 14.8249 1.31634 14.4344 1.70686L8.9842 7.15608L14.8494 13.0213C15.2396 13.4118 15.2398 14.045 14.8494 14.4354C14.4589 14.8259 13.8249 14.8259 13.4344 14.4354L7.57014 8.57014L1.70686 14.4344C1.31634 14.8249 0.683322 14.8249 0.292798 14.4344C-0.0975355 14.0439 -0.0976629 13.4108 0.292798 13.0203L6.15608 7.15608L0.70686 1.70686C0.316548 1.31632 0.316407 0.683251 0.70686 0.292798C1.09732 -0.0975952 1.7304 -0.0974945 2.12092 0.292798L7.57014 5.74202L13.0203 0.292798Z" fill="white"/>
</svg>
