<svg width="100" height="100" viewBox="0 0 100 100" fill="none" xmlns="http://www.w3.org/2000/svg">
<path d="M7.4998 84.9835C5.49985 84.9835 3.7499 84.2127 2.24994 82.671C0.74998 81.1294 0 79.4003 0 77.4837V22.4851C0 20.4852 0.74998 18.7353 2.24994 17.2353C3.7499 15.7353 5.49985 14.9854 7.4998 14.9854H92.4975C94.4975 14.9854 96.2474 15.7353 97.7474 17.2353C99.2473 18.7353 99.9973 20.4852 99.9973 22.4851V77.4837C99.9973 79.4003 99.2473 81.1294 97.7474 82.671C96.2474 84.2127 94.4975 84.9835 92.4975 84.9835H7.4998ZM27.4993 69.3589H72.498V61.8591H27.4993V69.3589ZM15.3746 53.7343H22.8744V46.2345H15.3746V53.7343ZM30.8742 53.7343H38.374V46.2345H30.8742V53.7343ZM46.2488 53.7343H53.7486V46.2345H46.2488V53.7343ZM61.7483 53.7343H69.2481V46.2345H61.7483V53.7343ZM77.1229 53.7343H84.6227V46.2345H77.1229V53.7343ZM15.3746 38.1097H22.8744V30.6099H15.3746V38.1097ZM30.8742 38.1097H38.374V30.6099H30.8742V38.1097ZM46.2488 38.1097H53.7486V30.6099H46.2488V38.1097ZM61.7483 38.1097H69.2481V30.6099H61.7483V38.1097ZM77.1229 38.1097H84.6227V30.6099H77.1229V38.1097Z" fill="white"/>
</svg>
