<svg width="100" height="100" viewBox="0 0 100 100" fill="none" xmlns="http://www.w3.org/2000/svg">
<path d="M50 100C40.5286 100 32.494 96.6789 25.8964 90.0367C19.2988 83.3945 16 75.3056 16 65.7702V41.3203H84V65.7702C84 75.3056 80.7012 83.3945 74.1036 90.0367C67.506 96.6789 59.4714 100 50 100ZM16 33.9853C16 25.1834 18.894 17.5428 24.6821 11.0636C30.4702 4.58435 37.6952 0.896496 46.3571 0V33.9853H16ZM53.6429 33.9853V0C62.3048 0.896496 69.5298 4.58435 75.3179 11.0636C81.106 17.5428 84 25.1834 84 33.9853H53.6429Z" fill="white"/>
</svg>
