<svg width="100" height="100" viewBox="0 0 100 100" fill="none" xmlns="http://www.w3.org/2000/svg">
<path d="M23.9769 86.6126C17.3103 86.6126 11.6476 84.2831 6.98853 79.624C2.32951 74.965 0 69.3022 0 62.6356C0 56.7266 1.89391 51.5373 5.68173 47.0677C9.46956 42.5981 14.2801 39.9087 20.1133 38.9996C21.6285 31.6513 25.189 25.6476 30.795 20.9885C36.401 16.3295 42.8782 14 50.2265 14C58.7112 14 65.8702 17.0871 71.7035 23.2612C77.5367 29.4354 80.4533 36.8406 80.4533 45.4768V48.204C85.9078 48.0525 90.529 49.8139 94.3168 53.4881C98.1046 57.1622 99.9985 61.8023 99.9985 67.4083C99.9985 72.6355 98.1046 77.143 94.3168 80.9308C90.529 84.7187 86.0214 86.6126 80.7943 86.6126H23.9769Z" fill="white"/>
</svg>
