<svg width="100" height="100" viewBox="0 0 100 100" fill="none" xmlns="http://www.w3.org/2000/svg">
<g clip-path="url(#clip0_3584_1628)">
<path d="M0 90.8214V84.0029H100.004V90.8214H0ZM11.3641 77.1845C9.54583 77.1845 7.95485 76.5026 6.59117 75.1389C5.22748 73.7752 4.54563 72.1843 4.54563 70.366V15.8184C4.54563 14.0002 5.22748 12.4092 6.59117 11.0455C7.95485 9.68184 9.54583 9 11.3641 9H88.6398C90.4581 9 92.049 9.68184 93.4127 11.0455C94.7764 12.4092 95.4583 14.0002 95.4583 15.8184V70.366C95.4583 72.1843 94.7764 73.7752 93.4127 75.1389C92.049 76.5026 90.4581 77.1845 88.6398 77.1845H11.3641ZM11.3641 70.366H88.6398V15.8184H11.3641V70.366Z" fill="white"/>
</g>
<defs>
<clipPath id="clip0_3584_1628">
<rect width="100" height="100" fill="white"/>
</clipPath>
</defs>
</svg>
