<svg width="100" height="100" viewBox="0 0 100 100" fill="none" xmlns="http://www.w3.org/2000/svg">
<g clip-path="url(#clip0_3584_1641)">
<path d="M10.9627 82.3188V89.8281C10.9627 91.0102 10.5636 92.0007 9.76545 92.7999C8.96638 93.6 7.97656 94 6.79601 94H4.01823C2.83767 94 1.84832 93.6 1.05017 92.7999C0.2511 92.0007 -0.148438 91.0102 -0.148438 89.8281V44.7719L11.6571 9.17188C12.1201 7.87396 12.884 6.85417 13.9488 6.1125C15.0136 5.37083 16.2405 5 17.6293 5H82.0738C83.4627 5 84.6895 5.37083 85.7543 6.1125C86.8192 6.85417 87.583 7.87396 88.046 9.17188L99.8516 44.7719V89.8281C99.8516 91.0102 99.4525 92.0007 98.6543 92.7999C97.8553 93.6 96.8654 94 95.6849 94H92.7682C91.5877 94 90.5983 93.6 89.8002 92.7999C89.0011 92.0007 88.6016 91.0102 88.6016 89.8281V82.3188H10.9627ZM11.3793 36.4281H88.3238L80.6849 13.3438H19.0182L11.3793 36.4281ZM22.8738 67.0219C25.0256 67.0219 26.8192 66.2918 28.2543 64.8316C29.6895 63.3715 30.4071 61.5984 30.4071 59.5125C30.4071 57.3496 29.678 55.5107 28.2196 53.9959C26.7613 52.482 24.9905 51.725 22.9071 51.725C20.7469 51.725 18.9104 52.4787 17.3974 53.9862C15.8854 55.4945 15.1293 57.3255 15.1293 59.4791C15.1293 61.6337 15.8821 63.4294 17.3877 64.8664C18.8942 66.3034 20.7229 67.0219 22.8738 67.0219ZM76.9349 67.0219C79.0951 67.0219 80.9316 66.2918 82.4446 64.8316C83.9566 63.3715 84.7127 61.5984 84.7127 59.5125C84.7127 57.3496 83.9599 55.5107 82.4543 53.9959C80.9479 52.482 79.1191 51.725 76.9682 51.725C74.8164 51.725 73.0229 52.4787 71.5877 53.9862C70.1525 55.4945 69.4349 57.3255 69.4349 59.4791C69.4349 61.6337 70.1641 63.4294 71.6224 64.8664C73.0807 66.3034 74.8516 67.0219 76.9349 67.0219Z" fill="white"/>
</g>
<defs>
<clipPath id="clip0_3584_1641">
<rect width="100" height="100" fill="white"/>
</clipPath>
</defs>
</svg>
