<svg width="100" height="100" viewBox="0 0 100 100" fill="none" xmlns="http://www.w3.org/2000/svg">
<path d="M10.5549 95.2178V88.3928H44.5186V95.2178H10.5549ZM72.8218 89.5303C70.633 89.5303 68.765 88.753 67.2177 87.1984C65.6705 85.6438 64.8969 83.7669 64.8969 81.5678H49.0471C48.066 81.5678 47.2546 81.1697 46.6131 80.3734C45.9715 79.5772 45.6508 78.6482 45.6508 77.5865C45.4998 70.3065 47.7263 64.1072 52.3303 58.9884C56.9343 53.8697 62.6326 50.8932 69.4254 50.059V5.35527H76.2181V50.059C83.0864 50.8932 88.8036 53.8697 93.3698 58.9884C97.9361 64.1072 100.144 70.3065 99.9928 77.5865C99.9928 78.6482 99.672 79.5772 99.0304 80.3734C98.3889 81.1697 97.5776 81.5678 96.5964 81.5678H80.7466C80.7466 83.7669 79.973 85.6438 78.4258 87.1984C76.8785 88.753 75.0105 89.5303 72.8218 89.5303ZM24.1404 81.5678V45.1678H3.4225C2.29038 45.1678 1.38468 44.7128 0.705401 43.8028C0.0261259 42.8928 -0.162562 41.9069 0.139338 40.8453L9.30955 6.72027C9.53598 5.96194 9.93222 5.35527 10.4983 4.90027C11.0643 4.44527 11.7625 4.21777 12.5927 4.21777H42.594C43.4242 4.21777 44.1224 4.44527 44.6885 4.90027C45.2545 5.35527 45.6508 5.96194 45.8772 6.72027L55.0474 40.8453C55.3493 41.9069 55.1606 42.8928 54.4813 43.8028C53.8021 44.7128 52.8964 45.1678 51.7642 45.1678H30.9331V81.5678H24.1404Z" fill="white"/>
</svg>
