<svg width="100" height="100" viewBox="0 0 100 100" fill="none" xmlns="http://www.w3.org/2000/svg">
<g clip-path="url(#clip0_3584_1696)">
<path d="M32.0469 95V90.625L42.5469 80H7.54688C5.54688 80 3.79688 79.25 2.29688 77.75C0.796875 76.25 0.046875 74.5 0.046875 72.5V12.5C0.046875 10.5 0.796875 8.75 2.29688 7.25C3.79688 5.75 5.54688 5 7.54688 5H92.5469C94.5469 5 96.2969 5.75 97.7969 7.25C99.2969 8.75 100.047 10.5 100.047 12.5V72.5C100.047 74.5 99.2969 76.25 97.7969 77.75C96.2969 79.25 94.5469 80 92.5469 80H57.5469L68.0469 90.625V95H32.0469ZM7.54688 60.5H92.5469V12.5H7.54688V60.5Z" fill="white"/>
</g>
<defs>
<clipPath id="clip0_3584_1696">
<rect width="100" height="100" fill="white"/>
</clipPath>
</defs>
</svg>
