<svg width="100" height="100" viewBox="0 0 100 100" fill="none" xmlns="http://www.w3.org/2000/svg">
<path d="M18.8057 54.1552L23.6009 20.6938C23.7785 19.9912 24.0449 19.3764 24.4 18.8495C24.7552 18.3225 25.288 17.9273 25.9984 17.6638L69.9538 0.274454C71.1969 -0.164672 72.3735 -0.0768471 73.4835 0.537929C74.5935 1.15271 75.2373 2.11878 75.4149 3.43616L81.542 54.1552H18.8057ZM35.9883 100C29.5948 100 24.4 97.6068 20.4041 92.8203C16.4082 88.0338 14.8542 82.4789 15.7422 76.1554L17.7401 62.0595H82.6076L84.3392 76.6824C85.0495 82.8302 83.4068 88.2534 79.4108 92.952C75.4149 97.6507 70.2646 100 63.9599 100H35.9883Z" fill="white"/>
</svg>
