<svg width="100" height="100" viewBox="0 0 100 100" fill="none" xmlns="http://www.w3.org/2000/svg">
<path d="M82.5 72.5552H62.625C59.7083 61.8052 54.4583 52.451 46.875 44.4927C39.2917 36.5343 30.1667 30.8885 19.5 27.5552H82.5V72.5552ZM0 90.0552V77.0552C3.4725 77.0552 6.42375 78.3189 8.85375 80.8464C11.2846 83.3748 12.5 86.4443 12.5 90.0552H0ZM25 90.0552C25 83.0002 22.5833 76.9864 17.75 72.0139C12.9167 67.0414 7 64.5552 0 64.5552V57.0552C9.05333 57.0552 16.7333 60.2843 23.04 66.7427C29.3467 73.201 32.5 80.9718 32.5 90.0552H25ZM45 90.0552C45 83.8052 43.8333 77.9093 41.5 72.3677C39.1667 66.826 35.9583 61.9927 31.875 57.8677C27.7917 53.7427 23.0208 50.4927 17.5625 48.1177C12.1042 45.7427 6.25 44.5552 0 44.5552V37.0552C7.25 37.0552 14.0625 38.451 20.4375 41.2427C26.8125 44.0343 32.375 47.826 37.125 52.6177C41.875 57.4093 45.625 63.0343 48.375 69.4927C51.125 75.951 52.5 82.8052 52.5 90.0552H45ZM92.5 90.0552H65C65 88.8052 64.9583 87.5552 64.875 86.3052C64.7917 85.0552 64.6667 83.8052 64.5 82.5552H92.5V17.5552H7.5V25.0552C6.25 24.8885 5 24.7635 3.75 24.6802C2.5 24.5968 1.25 24.5552 0 24.5552V17.5552C0 15.4927 0.734583 13.7268 2.20375 12.2577C3.67208 10.7893 5.4375 10.0552 7.5 10.0552H92.5C94.5625 10.0552 96.3283 10.7893 97.7975 12.2577C99.2658 13.7268 100 15.4927 100 17.5552V82.5552C100 84.6177 99.2658 86.3831 97.7975 87.8514C96.3283 89.3206 94.5625 90.0552 92.5 90.0552Z" fill="white"/>
</svg>
