<svg width="100" height="100" viewBox="0 0 100 100" fill="none" xmlns="http://www.w3.org/2000/svg">
<path d="M22.3781 100C20.5081 100 18.9075 99.3322 17.5762 97.9966C16.2441 96.6617 15.5781 95.0568 15.5781 93.1818V6.81818C15.5781 5 16.2581 3.40909 17.6181 2.04545C18.9781 0.681818 20.5648 0 22.3781 0H72.0181C73.8881 0 75.4891 0.667424 76.8212 2.00227C78.1525 3.33788 78.8181 4.94318 78.8181 6.81818V23.8636C80.1781 24.0909 81.3115 24.733 82.2181 25.7898C83.1248 26.8473 83.5781 28.0455 83.5781 29.3841V37.8409C83.5781 39.2803 83.1248 40.5303 82.2181 41.5909C81.3115 42.6515 80.1781 43.2955 78.8181 43.5227V93.1818C78.8181 95.0568 78.1525 96.6617 76.8212 97.9966C75.4891 99.3322 73.8881 100 72.0181 100H22.3781ZM22.3781 93.1818H72.0181V6.81818H22.3781V93.1818ZM49.5781 21.7045C50.2581 21.0227 50.5981 20.2273 50.5981 19.3182C50.5981 18.4091 50.2581 17.6136 49.5781 16.9318C48.8981 16.25 48.1048 15.9091 47.1981 15.9091C46.2915 15.9091 45.4981 16.25 44.8181 16.9318C44.1381 17.6136 43.7981 18.4091 43.7981 19.3182C43.7981 20.2273 44.1381 21.0227 44.8181 21.7045C45.4981 22.3864 46.2915 22.7273 47.1981 22.7273C48.1048 22.7273 48.8981 22.3864 49.5781 21.7045Z" fill="white"/>
</svg>
