<svg width="100" height="100" viewBox="0 0 100 100" fill="none" xmlns="http://www.w3.org/2000/svg">
<g clip-path="url(#clip0_3584_1660)">
<path d="M30.2701 94.0454V83.4121H6.98575C5.02497 83.4121 3.30928 82.6584 1.8387 81.151C0.368107 79.6436 -0.367188 77.9121 -0.367188 75.9565V13.3787C-0.367188 11.4232 0.368107 9.71208 1.8387 8.24541C3.30928 6.77874 5.02497 6.04541 6.98575 6.04541H90.3191C92.2799 6.04541 93.9956 6.77874 95.4662 8.24541C96.9367 9.71208 97.672 11.4232 97.672 13.3787V28.6565H90.3191V13.3787H6.98575V76.0787H49.6328V94.0454H30.2701ZM70.3289 65.0787C72.525 62.8787 75.1802 61.7787 78.2946 61.7787C81.409 61.7787 84.0691 62.8739 86.275 65.0641C88.4809 67.2543 89.5838 69.9025 89.5838 73.0085C89.5838 76.1146 88.4858 78.7676 86.2897 80.9676C84.0936 83.1676 81.4384 84.2676 78.324 84.2676C75.2096 84.2676 72.5495 83.1725 70.3436 80.9823C68.1377 78.7921 67.0348 76.1439 67.0348 73.0379C67.0348 69.9318 68.1328 67.2787 70.3289 65.0787ZM94.7014 32.3232C96.0282 32.3232 97.1818 32.8121 98.1622 33.7899C99.1426 34.7676 99.6328 35.9243 99.6328 37.2597V89.1088C99.6328 90.4443 99.1426 91.601 98.1622 92.5787C97.1818 93.5565 96.0282 94.0454 94.7014 94.0454H61.9171C60.5903 94.0454 59.4367 93.5565 58.4563 92.5787C57.476 91.601 56.9858 90.4443 56.9858 89.1088V37.2597C56.9858 35.9243 57.476 34.7676 58.4563 33.7899C59.4367 32.8121 60.5903 32.3232 61.9171 32.3232H94.7014ZM73.1622 39.2899C71.6916 40.7565 70.9563 42.4676 70.9563 44.4232C70.9563 46.3787 71.6916 48.0899 73.1622 49.5565C74.6328 51.0232 76.3485 51.7565 78.3093 51.7565C80.2701 51.7565 81.9858 51.0232 83.4563 49.5565C84.9269 48.0899 85.6622 46.3787 85.6622 44.4232C85.6622 42.4676 84.9269 40.7565 83.4563 39.2899C81.9858 37.8232 80.2701 37.0899 78.3093 37.0899C76.3485 37.0899 74.6328 37.8232 73.1622 39.2899ZM90.1353 84.8176C93.199 81.7621 94.7309 77.8306 94.7309 73.0232C94.7309 68.2158 93.199 64.2843 90.1353 61.2287C87.0715 58.1732 83.1296 56.6454 78.3093 56.6454C73.489 56.6454 69.547 58.1732 66.4833 61.2287C63.4196 64.2843 61.8877 68.2158 61.8877 73.0232C61.8877 77.8306 63.4196 81.7621 66.4833 84.8176C69.547 87.8732 73.489 89.401 78.3093 89.401C83.1296 89.401 87.0715 87.8732 90.1353 84.8176Z" fill="white"/>
</g>
<defs>
<clipPath id="clip0_3584_1660">
<rect width="100" height="100" fill="white"/>
</clipPath>
</defs>
</svg>
