<svg width="100" height="100" viewBox="0 0 100 100" fill="none" xmlns="http://www.w3.org/2000/svg">
<g clip-path="url(#clip0_3584_1678)">
<path d="M75.7955 100C74.2046 100 72.8598 99.4318 71.7614 98.2955C70.6629 97.1591 70.1136 95.7955 70.1136 94.2045V51.1364H94.2045C95.7197 51.1364 97.0644 51.7045 98.2386 52.8409C99.4129 53.9773 100 55.303 100 56.8182V70.9091C100 72.5833 99.4367 73.9678 98.3102 75.0625C97.183 76.1572 95.8144 76.7045 94.2045 76.7045H90.9091V94.2045C90.9091 95.8788 90.3458 97.2633 89.2193 98.358C88.092 99.4527 86.7235 100 85.1136 100H75.7955ZM50.6818 81.3636C45.75 81.3636 41.5436 79.6981 38.0625 76.3671C34.5814 73.0352 32.8409 68.9072 32.8409 63.983C32.8409 59.1307 34.5814 55.0189 38.0625 51.6477C41.5436 48.2765 45.75 46.5909 50.6818 46.5909H58.75V81.3636H50.6818ZM14.8864 53.4091C13.2121 53.4091 11.8277 52.8617 10.733 51.767C9.63826 50.6723 9.09091 49.2879 9.09091 47.6136V30.1136H5.79545C4.12121 30.1136 2.73674 29.5663 1.64205 28.4716C0.547349 27.3769 0 25.9924 0 24.3182V10.2273C0 8.71212 0.568182 7.38636 1.70455 6.25C2.84091 5.11364 4.20455 4.54545 5.79545 4.54545H29.8864V47.6136C29.8864 49.2045 29.3182 50.5682 28.1818 51.7045C27.0455 52.8409 25.7197 53.4091 24.2045 53.4091H14.8864ZM41.25 34.7727V0H49.3182C54.1773 0 58.3655 1.68409 61.883 5.05228C65.4004 8.42046 67.1591 12.5311 67.1591 17.3841C67.1591 22.3098 65.4004 26.4394 61.883 29.7727C58.3655 33.1061 54.1773 34.7727 49.3182 34.7727H41.25Z" fill="white"/>
</g>
<defs>
<clipPath id="clip0_3584_1678">
<rect width="100" height="100" fill="white"/>
</clipPath>
</defs>
</svg>
