<svg width="100" height="100" viewBox="0 0 100 100" fill="none" xmlns="http://www.w3.org/2000/svg">
<path d="M83.625 72.625L78.375 67.375C80.7083 65.0417 82.4792 62.375 83.6875 59.375C84.8958 56.375 85.5 53.25 85.5 50C85.5 46.75 84.875 43.625 83.625 40.625C82.375 37.625 80.625 34.9583 78.375 32.625L83.625 27.375C86.625 30.375 88.9375 33.8333 90.5625 37.75C92.1875 41.6667 93 45.75 93 50C93 54.25 92.1875 58.3333 90.5625 62.25C88.9375 66.1667 86.625 69.625 83.625 72.625ZM70.25 62.625L64.875 57.375C65.875 56.375 66.6458 55.25 67.1875 54C67.7292 52.75 68 51.4167 68 50C68 48.5833 67.7292 47.25 67.1875 46C66.6458 44.75 65.875 43.625 64.875 42.625L70.25 37.375C71.9167 39.0417 73.2083 40.9583 74.125 43.125C75.0417 45.2917 75.5 47.5833 75.5 50C75.5 52.4167 75.0417 54.7083 74.125 56.875C73.2083 59.0417 71.9167 60.9583 70.25 62.625ZM15.3125 92.6875C10.4375 87.8125 8 81.9167 8 75V25C8 18.0833 10.4375 12.1875 15.3125 7.3125C20.1875 2.4375 26.0833 0 33 0C39.9167 0 45.8125 2.4375 50.6875 7.3125C55.5625 12.1875 58 18.0833 58 25V75C58 81.9167 55.5625 87.8125 50.6875 92.6875C45.8125 97.5625 39.9167 100 33 100C26.0833 100 20.1875 97.5625 15.3125 92.6875ZM40.0625 77.0625C42.0208 75.1042 43 72.75 43 70C43 67.25 42.0208 64.8958 40.0625 62.9375C38.1042 60.9792 35.75 60 33 60C30.25 60 27.8958 60.9792 25.9375 62.9375C23.9792 64.8958 23 67.25 23 70C23 72.75 23.9792 75.1042 25.9375 77.0625C27.8958 79.0208 30.25 80 33 80C35.75 80 38.1042 79.0208 40.0625 77.0625ZM29 74C27.9167 72.9167 27.375 71.5833 27.375 70C27.375 68.4167 27.9167 67.0833 29 66C30.0833 64.9167 31.4167 64.375 33 64.375C34.5833 64.375 35.9167 64.9167 37 66C38.0833 67.0833 38.625 68.4167 38.625 70C38.625 71.5833 38.0833 72.9167 37 74C35.9167 75.0833 34.5833 75.625 33 75.625C31.4167 75.625 30.0833 75.0833 29 74ZM40.0625 37.0625C42.0208 35.1042 43 32.75 43 30C43 27.25 42.0208 24.8958 40.0625 22.9375C38.1042 20.9792 35.75 20 33 20C30.25 20 27.8958 20.9792 25.9375 22.9375C23.9792 24.8958 23 27.25 23 30C23 32.75 23.9792 35.1042 25.9375 37.0625C27.8958 39.0208 30.25 40 33 40C35.75 40 38.1042 39.0208 40.0625 37.0625Z" fill="white"/>
</svg>
