<svg width="100" height="100" viewBox="0 0 100 100" fill="none" xmlns="http://www.w3.org/2000/svg">
<path d="M35.625 100L30.25 82.625C28.75 81.625 27.5625 80.3125 26.6875 78.6875C25.8125 77.0625 25.375 75.2917 25.375 73.375V26.625C25.375 24.7083 25.8333 22.9167 26.75 21.25C27.6667 19.5833 28.875 18.25 30.375 17.25L35.625 0H65.125L70.375 17.25C71.875 18.25 73.0833 19.5833 74 21.25C74.9167 22.9167 75.375 24.7083 75.375 26.625V73.375C75.375 75.2917 74.9375 77.0625 74.0625 78.6875C73.1875 80.3125 72 81.625 70.5 82.625L65.125 100H35.625ZM36.625 77.125H64.125C65.2083 77.125 66.1042 76.7708 66.8125 76.0625C67.5208 75.3542 67.875 74.4583 67.875 73.375V26.625C67.875 25.5417 67.5208 24.6458 66.8125 23.9375C66.1042 23.2292 65.2083 22.875 64.125 22.875H36.625C35.5417 22.875 34.6458 23.2292 33.9375 23.9375C33.2292 24.6458 32.875 25.5417 32.875 26.625V73.375C32.875 74.4583 33.2292 75.3542 33.9375 76.0625C34.6458 76.7708 35.5417 77.125 36.625 77.125Z" fill="white"/>
</svg>
