<svg width="52" height="52" viewBox="0 0 52 52" fill="none" xmlns="http://www.w3.org/2000/svg">
<path d="M48.88 26.5417C48.88 24.8517 48.7283 23.2267 48.4467 21.6667H26V30.8967H38.8267C38.2633 33.865 36.5733 36.3784 34.0383 38.0684V44.07H41.7733C46.28 39.91 48.88 33.8 48.88 26.5417Z" fill="#4285F4"/>
<path d="M25.9954 49.8333C32.4304 49.8333 37.8254 47.7099 41.7687 44.0699L34.0337 38.0683C31.9104 39.4983 29.2021 40.3649 25.9954 40.3649C19.7987 40.3649 14.5337 36.1833 12.6487 30.5499H4.71875V36.7033C8.64042 44.4816 16.6787 49.8333 25.9954 49.8333Z" fill="#34A853"/>
<path d="M12.6507 30.5284C12.1741 29.0984 11.8924 27.5817 11.8924 26C11.8924 24.4184 12.1741 22.9017 12.6507 21.4717V15.3184H4.72073C3.09573 18.525 2.16406 22.1434 2.16406 26C2.16406 29.8567 3.09573 33.475 4.72073 36.6817L10.8957 31.8717L12.6507 30.5284Z" fill="#FBBC05"/>
<path d="M25.9954 11.6567C29.5054 11.6567 32.6254 12.87 35.1171 15.21L41.9421 8.38499C37.8038 4.52832 32.4304 2.16666 25.9954 2.16666C16.6787 2.16666 8.64042 7.51832 4.71875 15.3183L12.6488 21.4717C14.5338 15.8383 19.7988 11.6567 25.9954 11.6567Z" fill="#EA4335"/>
</svg>
