<svg width="168" height="55" viewBox="0 0 168 55" fill="none" xmlns="http://www.w3.org/2000/svg">
<path d="M41.1012 19.3088H21.5967V25.0825H35.4305C34.7451 33.1641 27.9948 36.633 21.6201 36.633C19.6006 36.6419 17.5995 36.2493 15.7338 35.4781C13.868 34.707 12.1749 33.5728 10.7534 32.1418C9.33183 30.7108 8.21028 29.0115 7.45422 27.1433C6.69816 25.2751 6.32273 23.2754 6.34986 21.2608C6.34986 12.5203 13.1328 5.79078 21.6388 5.79078C28.2005 5.79078 32.0671 9.96369 32.0671 9.96369L36.1176 5.7768C36.1176 5.7768 30.9143 0 21.4269 0C9.34564 0 0 10.1719 0 21.1583C0 31.9239 8.79104 42.4222 21.7322 42.4222C33.1156 42.4222 41.4486 34.6421 41.4486 23.1383C41.4486 20.7107 41.0949 19.3088 41.0949 19.3088H41.1012Z" fill="white"/>
<path d="M57.0802 15.1267C49.0759 15.1267 43.3398 21.3698 43.3398 28.6479C43.3398 36.0363 48.9014 42.3944 57.1737 42.3944C64.6608 42.3944 70.7941 36.686 70.7941 28.8064C70.7941 19.7923 63.6591 15.1252 57.0802 15.1252V15.1267ZM57.1581 20.4823C61.0933 20.4823 64.8228 23.6575 64.8228 28.7722C64.8228 33.7766 61.1089 37.0434 57.1394 37.0434C52.7774 37.0434 49.3501 33.559 49.3501 28.7318C49.3501 24.0072 52.7462 20.4823 57.1706 20.4823H57.1581Z" fill="white"/>
<path d="M86.9591 15.1267C78.9548 15.1267 73.2188 21.3698 73.2188 28.6479C73.2188 36.0363 78.7803 42.3944 87.0526 42.3944C94.5397 42.3944 100.673 36.686 100.673 28.8064C100.673 19.7923 93.538 15.1252 86.9591 15.1252V15.1267ZM87.037 20.4823C90.9722 20.4823 94.7017 23.6575 94.7017 28.7722C94.7017 33.7766 90.9878 37.0434 87.0183 37.0434C82.6563 37.0434 79.229 33.559 79.229 28.7318C79.229 24.0072 82.6251 20.4823 87.0495 20.4823H87.037Z" fill="white"/>
<path d="M116.269 15.1427C108.922 15.1427 103.148 21.5614 103.148 28.7665C103.148 36.9724 109.843 42.4151 116.141 42.4151C120.036 42.4151 122.108 40.8718 123.619 39.1016V41.7903C123.619 46.4947 120.755 49.3124 116.434 49.3124C112.259 49.3124 110.165 46.215 109.424 44.4588L104.17 46.6346C106.034 50.5666 109.785 54.6649 116.478 54.6649C123.8 54.6649 129.349 50.0755 129.349 40.4491V15.9618H123.641V18.2713C121.88 16.3752 119.469 15.1427 116.272 15.1427H116.269ZM116.798 20.489C120.4 20.489 124.099 23.5569 124.099 28.796C124.099 34.1221 120.406 37.0563 116.719 37.0563C112.803 37.0563 109.159 33.8859 109.159 28.8457C109.159 23.6113 112.944 20.489 116.798 20.489Z" fill="white"/>
<path d="M154.861 15.1095C147.932 15.1095 142.113 20.6113 142.113 28.7239C142.113 37.3122 148.599 42.4052 155.511 42.4052C161.294 42.4052 164.858 39.2502 166.961 36.4217L162.236 33.2854C161.01 35.1815 158.96 37.0387 155.541 37.0387C151.699 37.0387 149.932 34.9406 148.837 32.9046L167.162 25.3203L166.227 23.0979C164.458 18.7463 160.326 15.1095 154.861 15.1095ZM155.1 20.3533C157.597 20.3533 159.393 21.6774 160.156 23.2657L147.918 28.368C147.388 24.4174 151.143 20.3533 155.084 20.3533H155.1Z" fill="white"/>
<path d="M133.359 41.5961H139.379V1.41032H133.359V41.5961Z" fill="white"/>
</svg>
